<svg xmlns="http://www.w3.org/2000/svg" xmlns:xlink="http://www.w3.org/1999/xlink" version="1.1" data-diagram-type="CLASS" style="width:748px;height:345px;background:#FFFFFF;" width="748px" height="345px" viewBox="0 0 748 345" zoomAndPan="magnify" preserveAspectRatio="none" contentStyleType="text/css"><?plantuml 1.2026.7?><defs/><g font-family="sans-serif" lengthAdjust="spacing"><g class="title" data-source-line="20"><text x="72.156" y="23.132" fill="#000" font-size="14" textLength="597.481" font-weight="700" font-family="Arial">Modelo de dados EscolaDB (entidades independentes usadas nos exercícios de SELECT)</text></g><!--class CLIENTES--><g class="entity" data-qualified-name="CLIENTES" id="ent0001" data-source-line="22"><rect x="471" y="44.099" width="191.893" height="120.744" fill="#F1F1F1" style="stroke:#181818;stroke-width:0.5;" rx="2.5" ry="2.5"/><ellipse cx="531.16" cy="59.099" rx="10" ry="10" fill="#ADD1B2" style="stroke:#181818;stroke-width:1;"/><path d="M530.223,59.88 L530.223,61.802 L533.551,61.802 L533.551,61.099 Q533.551,60.63 533.723,60.427 Q533.91,60.224 534.192,60.224 Q534.489,60.224 534.66,60.427 Q534.848,60.63 534.848,61.099 L534.848,63.099 L528.723,63.099 Q528.254,63.099 528.051,62.927 Q527.848,62.739 527.848,62.442 Q527.848,62.161 528.051,61.989 Q528.254,61.802 528.723,61.802 L528.926,61.802 L528.926,56.708 L528.723,56.708 Q528.254,56.708 528.051,56.536 Q527.848,56.349 527.848,56.052 Q527.848,55.755 528.051,55.583 Q528.254,55.396 528.723,55.396 L534.567,55.411 L534.567,57.38 Q534.567,57.849 534.379,58.052 Q534.207,58.255 533.91,58.255 Q533.614,58.255 533.426,58.052 Q533.254,57.849 533.254,57.38 L533.254,56.708 L530.223,56.708 L530.223,58.583 L531.364,58.583 Q531.364,58.083 531.457,57.927 Q531.66,57.614 532.02,57.614 Q532.301,57.614 532.489,57.817 Q532.676,58.021 532.676,58.489 L532.676,59.989 Q532.676,60.411 532.567,60.552 Q532.364,60.864 532.02,60.864 Q531.66,60.864 531.457,60.552 Q531.364,60.396 531.364,59.88 L530.223,59.88 Z " fill="#000"/><text x="550.16" y="63.818" fill="#000" font-size="13" textLength="63.572" font-family="Arial">CLIENTES</text><line x1="472" y1="74.099" x2="661.893" y2="74.099" style="stroke:#181818;stroke-width:0.5;"/><g data-visibility-modifier="IE_MANDATORY"><ellipse cx="482" cy="87.073" rx="3" ry="3" fill="#000" style="stroke:#000;stroke-width:1;"/></g><text x="490" y="90.292" fill="#000" font-size="13" textLength="131.504" font-family="Arial">CodCliente : INT «PK»</text><line x1="472" y1="97.047" x2="661.893" y2="97.047" style="stroke:#181818;stroke-width:1;"/><text x="477" y="113.241" fill="#000" font-size="13" textLength="179.893" font-family="Arial">NomeCliente : VARCHAR(100)</text><text x="477" y="128.19" fill="#000" font-size="13" textLength="168.346" font-family="Arial">EndCliente : VARCHAR(150)</text><text x="477" y="143.139" fill="#000" font-size="13" textLength="104.032" font-family="Arial">Estado : CHAR(2)</text><text x="477" y="158.087" fill="#000" font-size="13" textLength="64.308" font-family="Arial">Idade : INT</text></g><!--class PRODUTO--><g class="entity" data-qualified-name="PRODUTO" id="ent0002" data-source-line="31"><rect x="13.5" y="51.599" width="178.918" height="105.795" fill="#F1F1F1" style="stroke:#181818;stroke-width:0.5;" rx="2.5" ry="2.5"/><ellipse cx="66.459" cy="66.599" rx="10" ry="10" fill="#ADD1B2" style="stroke:#181818;stroke-width:1;"/><path d="M65.521,67.38 L65.521,69.302 L68.85,69.302 L68.85,68.599 Q68.85,68.13 69.021,67.927 Q69.209,67.724 69.49,67.724 Q69.787,67.724 69.959,67.927 Q70.146,68.13 70.146,68.599 L70.146,70.599 L64.021,70.599 Q63.553,70.599 63.35,70.427 Q63.146,70.239 63.146,69.942 Q63.146,69.661 63.35,69.489 Q63.553,69.302 64.021,69.302 L64.225,69.302 L64.225,64.208 L64.021,64.208 Q63.553,64.208 63.35,64.036 Q63.146,63.849 63.146,63.552 Q63.146,63.255 63.35,63.083 Q63.553,62.896 64.021,62.896 L69.865,62.911 L69.865,64.88 Q69.865,65.349 69.678,65.552 Q69.506,65.755 69.209,65.755 Q68.912,65.755 68.725,65.552 Q68.553,65.349 68.553,64.88 L68.553,64.208 L65.521,64.208 L65.521,66.083 L66.662,66.083 Q66.662,65.583 66.756,65.427 Q66.959,65.114 67.318,65.114 Q67.6,65.114 67.787,65.317 Q67.975,65.521 67.975,65.989 L67.975,67.489 Q67.975,67.911 67.865,68.052 Q67.662,68.364 67.318,68.364 Q66.959,68.364 66.756,68.052 Q66.662,67.896 66.662,67.38 L65.521,67.38 Z " fill="#000"/><text x="85.459" y="71.318" fill="#000" font-size="13" textLength="65" font-family="Arial">PRODUTO</text><line x1="14.5" y1="81.599" x2="191.418" y2="81.599" style="stroke:#181818;stroke-width:0.5;"/><g data-visibility-modifier="IE_MANDATORY"><ellipse cx="24.5" cy="94.573" rx="3" ry="3" fill="#000" style="stroke:#000;stroke-width:1;"/></g><text x="32.5" y="97.792" fill="#000" font-size="13" textLength="153.918" font-family="Arial">CodigoProduto : INT «PK»</text><line x1="14.5" y1="104.547" x2="191.418" y2="104.547" style="stroke:#181818;stroke-width:1;"/><text x="19.5" y="120.741" fill="#000" font-size="13" textLength="162.544" font-family="Arial">Descricao : VARCHAR(100)</text><text x="19.5" y="135.69" fill="#000" font-size="13" textLength="111.985" font-family="Arial">Unidade : CHAR(2)</text><text x="19.5" y="150.639" fill="#000" font-size="13" textLength="151.722" font-family="Arial">Val_Unit : DECIMAL(10,2)</text></g><!--class VENDEDOR--><g class="entity" data-qualified-name="VENDEDOR" id="ent0003" data-source-line="39"><rect x="228" y="59.099" width="207.806" height="90.846" fill="#F1F1F1" style="stroke:#181818;stroke-width:0.5;" rx="2.5" ry="2.5"/><ellipse cx="291.064" cy="74.099" rx="10" ry="10" fill="#ADD1B2" style="stroke:#181818;stroke-width:1;"/><path d="M290.127,74.88 L290.127,76.802 L293.455,76.802 L293.455,76.099 Q293.455,75.63 293.627,75.427 Q293.814,75.224 294.096,75.224 Q294.393,75.224 294.564,75.427 Q294.752,75.63 294.752,76.099 L294.752,78.099 L288.627,78.099 Q288.158,78.099 287.955,77.927 Q287.752,77.739 287.752,77.442 Q287.752,77.161 287.955,76.989 Q288.158,76.802 288.627,76.802 L288.83,76.802 L288.83,71.708 L288.627,71.708 Q288.158,71.708 287.955,71.536 Q287.752,71.349 287.752,71.052 Q287.752,70.755 287.955,70.583 Q288.158,70.396 288.627,70.396 L294.471,70.411 L294.471,72.38 Q294.471,72.849 294.283,73.052 Q294.111,73.255 293.814,73.255 Q293.518,73.255 293.33,73.052 Q293.158,72.849 293.158,72.38 L293.158,71.708 L290.127,71.708 L290.127,73.583 L291.268,73.583 Q291.268,73.083 291.361,72.927 Q291.564,72.614 291.924,72.614 Q292.205,72.614 292.393,72.817 Q292.58,73.021 292.58,73.489 L292.58,74.989 Q292.58,75.411 292.471,75.552 Q292.268,75.864 291.924,75.864 Q291.564,75.864 291.361,75.552 Q291.268,75.396 291.268,74.88 L290.127,74.88 Z " fill="#000"/><text x="310.064" y="78.818" fill="#000" font-size="13" textLength="73.677" font-family="Arial">VENDEDOR</text><line x1="229" y1="89.099" x2="434.806" y2="89.099" style="stroke:#181818;stroke-width:0.5;"/><g data-visibility-modifier="IE_MANDATORY"><ellipse cx="239" cy="102.073" rx="3" ry="3" fill="#000" style="stroke:#000;stroke-width:1;"/></g><text x="247" y="105.292" fill="#000" font-size="13" textLength="164.766" font-family="Arial">CodigoVendedor : INT «PK»</text><line x1="229" y1="112.047" x2="434.806" y2="112.047" style="stroke:#181818;stroke-width:1;"/><text x="234" y="128.241" fill="#000" font-size="13" textLength="195.806" font-family="Arial">NomeVendedor : VARCHAR(100)</text><text x="234" y="143.19" fill="#000" font-size="13" textLength="174.84" font-family="Arial">Salario_Fixo : DECIMAL(10,2)</text></g><!--class ALUNO--><g class="entity" data-qualified-name="ALUNO" id="ent0004" data-source-line="46"><rect x="7" y="225.099" width="191.905" height="105.795" fill="#F1F1F1" style="stroke:#181818;stroke-width:0.5;" rx="2.5" ry="2.5"/><ellipse cx="76.558" cy="240.099" rx="10" ry="10" fill="#ADD1B2" style="stroke:#181818;stroke-width:1;"/><path d="M75.621,240.88 L75.621,242.802 L78.949,242.802 L78.949,242.099 Q78.949,241.63 79.121,241.427 Q79.308,241.224 79.589,241.224 Q79.886,241.224 80.058,241.427 Q80.246,241.63 80.246,242.099 L80.246,244.099 L74.121,244.099 Q73.652,244.099 73.449,243.927 Q73.246,243.739 73.246,243.442 Q73.246,243.161 73.449,242.989 Q73.652,242.802 74.121,242.802 L74.324,242.802 L74.324,237.708 L74.121,237.708 Q73.652,237.708 73.449,237.536 Q73.246,237.349 73.246,237.052 Q73.246,236.755 73.449,236.583 Q73.652,236.396 74.121,236.396 L79.964,236.411 L79.964,238.38 Q79.964,238.849 79.777,239.052 Q79.605,239.255 79.308,239.255 Q79.011,239.255 78.824,239.052 Q78.652,238.849 78.652,238.38 L78.652,237.708 L75.621,237.708 L75.621,239.583 L76.761,239.583 Q76.761,239.083 76.855,238.927 Q77.058,238.614 77.417,238.614 Q77.699,238.614 77.886,238.817 Q78.074,239.021 78.074,239.489 L78.074,240.989 Q78.074,241.411 77.964,241.552 Q77.761,241.864 77.417,241.864 Q77.058,241.864 76.855,241.552 Q76.761,241.396 76.761,240.88 L75.621,240.88 Z " fill="#000"/><text x="95.558" y="244.818" fill="#000" font-size="13" textLength="44.789" font-family="Arial">ALUNO</text><line x1="8" y1="255.099" x2="197.905" y2="255.099" style="stroke:#181818;stroke-width:0.5;"/><g data-visibility-modifier="IE_MANDATORY"><ellipse cx="18" cy="268.073" rx="3" ry="3" fill="#000" style="stroke:#000;stroke-width:1;"/></g><text x="26" y="271.292" fill="#000" font-size="13" textLength="119.926" font-family="Arial">Matricula : INT «PK»</text><line x1="8" y1="278.047" x2="197.905" y2="278.047" style="stroke:#181818;stroke-width:1;"/><text x="13" y="294.241" fill="#000" font-size="13" textLength="179.905" font-family="Arial">Nome_Aluno : VARCHAR(100)</text><text x="13" y="309.19" fill="#000" font-size="13" textLength="109.814" font-family="Arial">Data_Nasc : DATE</text><text x="13" y="324.139" fill="#000" font-size="13" textLength="138.715" font-family="Arial">Cidade : VARCHAR(50)</text></g><g class="entity" data-qualified-name="GMN5" id="ent0006" data-source-line="55"><path d="M400,250.599 L400,305.445 A0,0 0 0 0 400,305.445 L733.793,305.445 A0,0 0 0 0 733.793,305.445 L733.793,260.599 L723.793,250.599 L571,250.599 L567,165.099 L563,250.599 L400,250.599 A0,0 0 0 0 400,250.599" style="stroke:#181818;stroke-width:0.5;" fill="#FEFFDD"/><path d="M723.793,250.599 L723.793,260.599 L733.793,260.599 L723.793,250.599" style="stroke:#181818;stroke-width:0.5;" fill="#FEFFDD"/><text x="406" y="267.792" fill="#000" font-size="13" textLength="214.652" font-family="Arial">Entidades independentes no material</text><text x="406" y="282.741" fill="#000" font-size="13" textLength="195.851" font-family="Arial">original: não há chave estrangeira</text><text x="406" y="297.69" fill="#000" font-size="13" textLength="312.793" font-family="Arial">entre CLIENTES, PRODUTO, VENDEDOR e ALUNO.</text></g><?plantuml-src VPFRRXen48Rlzob6wKrI9H57AOcYIClkegB2WZZTeidQW8Mn8ziqXweFK_MwJy6BTRpi0ar9kLZP_p-U-MPix4ge9pIuXaVCLWkZDuf5Mce3dzhvBx3x2Bj4ff-5Mi0SfUL73kDpt4ZNrigbkEOG6e7oj3yIRnogzU38vSe9zmhV0u3MUuZafjrenzxHXd5JgFN6xKtS8jLdBBHQL4-QbK8RkLV9uL5BLWf5sJBHU2cobUBMGlMw6Vmuna5Zz7DEiw_Mk6qcj3y-LFE7Y9lAz3JZKbEJm6X05XARQObn2yvzPwHn2q8n_iJfenpjDXOPMb0Kp5-uoRQ_Cq5hoZ1AkaaqlWY2OYXdKRUJfEDaT0PqeDpaT9-9ZqLI-9Hm1vrq3FVtWwyF3-HTNT4drMj-yAVXCFeI3i-hbSe5cObY9xpcphEE6Y4z5sjUwlWsTbLyuoNTODYF9-D-3bUi3snYeGT6iutJ9_5YRZCZCjJ_masKAEeT2AOePwGx4kCawlJ2BaLVadM4CqtIE8dxmvodtFm5DFLtmEXMFnhOKS0xg15AD4BFsk95_myYx4xItKJoLL6-XuwQtKZyiF8ib1jrOXWnEfobQ3DVD1pxXnYLuob3_RqHWjBElthdz1hqVFzSyki-_HAfu1eTp_-l0Dg8XL0exq1jVsbORdz2jiHl7BXr1jM22uCKHaSDtsU_B6_-yZ1olklzceR2m5C5Vm00?></g></svg>