<svg xmlns="http://www.w3.org/2000/svg" xmlns:xlink="http://www.w3.org/1999/xlink" version="1.1" data-diagram-type="ACTIVITY" style="width:626px;height:586px;background:#FFFFFF;" width="626px" height="586px" viewBox="0 0 626 586" zoomAndPan="magnify" preserveAspectRatio="none" contentStyleType="text/css"><?plantuml 1.2026.7?><defs/><g font-family="sans-serif" lengthAdjust="spacing"><g class="title" data-source-line="22"><text x="141.322" y="33.132" fill="#000" font-size="14" textLength="341.564" font-weight="700" font-family="Arial">Fluxo de validação de campo com máscara (app.js)</text></g><ellipse cx="316.268" cy="62.099" rx="10" ry="10" fill="#222" style="stroke:#222;stroke-width:1;"/><rect x="128.577" y="92.099" width="375.383" height="33.799" fill="#E8F4FD" style="stroke:#3498DB;stroke-width:1.5;" rx="12.5" ry="12.5"/><text x="138.577" y="113.354" fill="#2C3E50" font-size="12" textLength="355.383" font-family="Arial">Usuário posiciona o foco no campo "cpfcnpjpessoa" (evento focus)</text><rect x="169.958" y="145.897" width="292.619" height="33.799" fill="#E8F4FD" style="stroke:#3498DB;stroke-width:1.5;" rx="12.5" ry="12.5"/><text x="179.958" y="167.153" fill="#2C3E50" font-size="12" textLength="272.619" font-family="Arial">trocaMascaraCpfCnpj("A") remove a máscara atual</text><rect x="212.231" y="199.696" width="208.074" height="33.799" fill="#E8F4FD" style="stroke:#3498DB;stroke-width:1.5;" rx="12.5" ry="12.5"/><text x="222.231" y="220.952" fill="#2C3E50" font-size="12" textLength="188.074" font-family="Arial">Usuário digita o valor sem máscara</text><rect x="212.89" y="253.495" width="206.756" height="33.799" fill="#E8F4FD" style="stroke:#3498DB;stroke-width:1.5;" rx="12.5" ry="12.5"/><text x="222.89" y="274.751" fill="#2C3E50" font-size="12" textLength="186.756" font-family="Arial">Usuário sai do campo (evento blur)</text><rect x="227.319" y="307.294" width="177.898" height="33.799" fill="#E8F4FD" style="stroke:#3498DB;stroke-width:1.5;" rx="12.5" ry="12.5"/><text x="237.319" y="328.55" fill="#2C3E50" font-size="12" textLength="157.898" font-family="Arial">Valor é limpo com "unmask()"</text><polygon points="205.883,361.093,426.653,361.093,438.653,373.093,426.653,385.093,205.883,385.093,193.883,373.093,205.883,361.093" fill="#F8F9FA" style="stroke:#2C3E50;stroke-width:1.5;stroke-linejoin:miter;stroke-miterlimit:10;"/><text x="205.883" y="377.449" fill="#2C3E50" font-size="12" textLength="220.77" font-family="Arial">validarCpfCnpj(valor) retorna verdadeiro?</text><text x="173.666" y="370.338" fill="#000" font-size="13" textLength="20.217" font-family="Arial">sim</text><text x="438.653" y="370.338" fill="#000" font-size="13" textLength="21.69" font-family="Arial">não</text><rect x="16" y="395.093" width="295.432" height="47.598" fill="#E8F4FD" style="stroke:#3498DB;stroke-width:1.5;" rx="12.5" ry="12.5"/><text x="26" y="416.349" fill="#2C3E50" font-size="12" textLength="275.432" font-family="Arial">trocaMascaraCpfCnpj(valor) aplica CPF (11 dígitos)</text><text x="26" y="430.147" fill="#2C3E50" font-size="12" textLength="224.777" font-family="Arial">ou CNPJ (14 dígitos) conforme o tamanho</text><rect x="85.012" y="476.489" width="157.408" height="33.799" fill="#E8F4FD" style="stroke:#3498DB;stroke-width:1.5;" rx="12.5" ry="12.5"/><text x="95.012" y="497.745" fill="#2C3E50" font-size="12" textLength="137.408" font-family="Arial">Campo exibido formatado</text><ellipse cx="163.716" cy="555.087" rx="11" ry="11" fill="none" style="stroke:#222;stroke-width:1;"/><ellipse cx="163.716" cy="555.087" rx="6" ry="6" fill="#222" style="stroke:#222;stroke-width:1;"/><rect x="335.847" y="395.093" width="265.947" height="33.799" fill="#E8F4FD" style="stroke:#3498DB;stroke-width:1.5;" rx="12.5" ry="12.5"/><text x="345.847" y="416.349" fill="#2C3E50" font-size="12" textLength="245.947" font-family="Arial">Swal.fire exibe alerta "Verifique o CPF/CNPJ!"</text><rect x="331.432" y="462.69" width="274.777" height="33.799" fill="#E8F4FD" style="stroke:#3498DB;stroke-width:1.5;" rx="12.5" ry="12.5"/><text x="341.432" y="483.946" fill="#2C3E50" font-size="12" textLength="254.777" font-family="Arial">Campo permanece sem máscara para correção</text><ellipse cx="468.82" cy="541.288" rx="11" ry="11" fill="none" style="stroke:#222;stroke-width:1;"/><ellipse cx="468.82" cy="541.288" rx="6" ry="6" fill="#222" style="stroke:#222;stroke-width:1;"/><line x1="316.268" y1="72.099" x2="316.268" y2="92.099" style="stroke:#34495E;stroke-width:1.2;"/><polygon points="312.268,82.099,316.268,92.099,320.268,82.099,316.268,86.099" fill="#34495E" style="stroke:#34495E;stroke-width:1;stroke-linejoin:miter;stroke-miterlimit:10;"/><line x1="316.268" y1="125.897" x2="316.268" y2="145.897" style="stroke:#34495E;stroke-width:1.2;"/><polygon points="312.268,135.897,316.268,145.897,320.268,135.897,316.268,139.897" fill="#34495E" style="stroke:#34495E;stroke-width:1;stroke-linejoin:miter;stroke-miterlimit:10;"/><line x1="316.268" y1="179.696" x2="316.268" y2="199.696" style="stroke:#34495E;stroke-width:1.2;"/><polygon points="312.268,189.696,316.268,199.696,320.268,189.696,316.268,193.696" fill="#34495E" style="stroke:#34495E;stroke-width:1;stroke-linejoin:miter;stroke-miterlimit:10;"/><line x1="316.268" y1="233.495" x2="316.268" y2="253.495" style="stroke:#34495E;stroke-width:1.2;"/><polygon points="312.268,243.495,316.268,253.495,320.268,243.495,316.268,247.495" fill="#34495E" style="stroke:#34495E;stroke-width:1;stroke-linejoin:miter;stroke-miterlimit:10;"/><line x1="316.268" y1="287.294" x2="316.268" y2="307.294" style="stroke:#34495E;stroke-width:1.2;"/><polygon points="312.268,297.294,316.268,307.294,320.268,297.294,316.268,301.294" fill="#34495E" style="stroke:#34495E;stroke-width:1;stroke-linejoin:miter;stroke-miterlimit:10;"/><line x1="163.716" y1="442.69" x2="163.716" y2="476.489" style="stroke:#34495E;stroke-width:1.2;"/><polygon points="159.716,466.489,163.716,476.489,167.716,466.489,163.716,470.489" fill="#34495E" style="stroke:#34495E;stroke-width:1;stroke-linejoin:miter;stroke-miterlimit:10;"/><line x1="163.716" y1="510.288" x2="163.716" y2="544.087" style="stroke:#34495E;stroke-width:1.2;"/><polygon points="159.716,534.087,163.716,544.087,167.716,534.087,163.716,538.087" fill="#34495E" style="stroke:#34495E;stroke-width:1;stroke-linejoin:miter;stroke-miterlimit:10;"/><line x1="468.82" y1="428.892" x2="468.82" y2="462.69" style="stroke:#34495E;stroke-width:1.2;"/><polygon points="464.82,452.69,468.82,462.69,472.82,452.69,468.82,456.69" fill="#34495E" style="stroke:#34495E;stroke-width:1;stroke-linejoin:miter;stroke-miterlimit:10;"/><line x1="468.82" y1="496.489" x2="468.82" y2="530.288" style="stroke:#34495E;stroke-width:1.2;"/><polygon points="464.82,520.288,468.82,530.288,472.82,520.288,468.82,524.288" fill="#34495E" style="stroke:#34495E;stroke-width:1;stroke-linejoin:miter;stroke-miterlimit:10;"/><line x1="193.883" y1="373.093" x2="163.716" y2="373.093" style="stroke:#34495E;stroke-width:1.2;"/><line x1="163.716" y1="373.093" x2="163.716" y2="395.093" style="stroke:#34495E;stroke-width:1.2;"/><polygon points="159.716,385.093,163.716,395.093,167.716,385.093,163.716,389.093" fill="#34495E" style="stroke:#34495E;stroke-width:1;stroke-linejoin:miter;stroke-miterlimit:10;"/><line x1="438.653" y1="373.093" x2="468.82" y2="373.093" style="stroke:#34495E;stroke-width:1.2;"/><line x1="468.82" y1="373.093" x2="468.82" y2="395.093" style="stroke:#34495E;stroke-width:1.2;"/><polygon points="464.82,385.093,468.82,395.093,472.82,385.093,468.82,389.093" fill="#34495E" style="stroke:#34495E;stroke-width:1;stroke-linejoin:miter;stroke-miterlimit:10;"/><line x1="316.268" y1="341.093" x2="316.268" y2="361.093" style="stroke:#34495E;stroke-width:1.2;"/><polygon points="312.268,351.093,316.268,361.093,320.268,351.093,316.268,355.093" fill="#34495E" style="stroke:#34495E;stroke-width:1;stroke-linejoin:miter;stroke-miterlimit:10;"/><?plantuml-src RPDBRjim48RtEiLKtKYRj7u1SRme7DbQ56WG86rMtOn9ofwOugWaPQSjUfWWYwABdi8NAwNueJJHZlFw_dz4kZMP2YsMi42nNbgkZSnOiuMtUVj5xbZXLYXvIsO91MgdEXcf2gorpzduAomLJ2sXVZr_GpyKz0PH9ul2quRyT_WP0Lp-BsD-dW_pMPDXAvNTHmV3yVdiCaIRcVjOFnlCH-_tiITE_zZtUKLYRPHpq3iRXUYCi6GZN-3oytoSJpi5NUgHi4--XFzwPinQthQkZgg7uz4ydBjg-asJ9wyLvBg-vx0jsA0cYRlVkyVsAB2i60INKEuUd0Z38S6gEhjpQU1vj3ww-EBgtOCbXeeT2MA3m52mO32y7n2BgX2ckgi2c366H6sKyMrLxT99TE4j2_o4BI6hYYpK9l4qJi6gaZSAyCH7NwEUTB2IbkGRPj0Ul3fr4jijSqWW3u8E0XQwjWt_jctT_G5D1yDnRKfqwoID9n4La3njnXxKjR16dsSR76-KbIWLMVwGWbyf0ucZCWqRVzNRlXihJG8XkyuXwVL0xlu6A-pIhuPhoAwkFuRmy1GEkap1Djnp1eybcXLF6aBMUbBtj23PBDMMwCEBQNBESnMfy6WWCU6Vje9kjgZF2hAgRGdBrSg61SQtob91t-fcV93qhX7m9kuGAXKc6oNKioL3S-U2D6jLUszEM2EfYFu1?></g></svg>