<svg xmlns="http://www.w3.org/2000/svg" xmlns:xlink="http://www.w3.org/1999/xlink" version="1.1" data-diagram-type="ACTIVITY" style="width:719px;height:822px;background:#FFFFFF;" width="719px" height="822px" viewBox="0 0 719 822" zoomAndPan="magnify" preserveAspectRatio="none" contentStyleType="text/css"><?plantuml 1.2026.7?><defs/><g font-family="sans-serif" lengthAdjust="spacing"><g class="title" data-source-line="22"><text x="208.829" y="33.132" fill="#000" font-size="14" textLength="300.323" font-weight="700" font-family="Arial">Ciclo básico de três estados de um processo</text></g><ellipse cx="383.521" cy="62.099" rx="10" ry="10" fill="#222" style="stroke:#222;stroke-width:1;"/><rect x="297.815" y="92.099" width="171.412" height="47.598" fill="#E8F4FD" style="stroke:#3498DB;stroke-width:1.5;" rx="12.5" ry="12.5"/><text x="307.815" y="113.354" fill="#2C3E50" font-size="12" textLength="151.412" font-family="Arial">Processo é criado e inserido</text><text x="307.815" y="127.153" fill="#2C3E50" font-size="12" textLength="109.371" font-family="Arial">na lista de PRONTO</text><polygon points="317.817,203.696,449.225,203.696,461.225,215.696,449.225,227.696,317.817,227.696,305.817,215.696,317.817,203.696" fill="#F8F9FA" style="stroke:#2C3E50;stroke-width:1.5;stroke-linejoin:miter;stroke-miterlimit:10;"/><text x="317.817" y="220.053" fill="#2C3E50" font-size="12" textLength="131.408" font-family="Arial">Processador disponível?</text><text x="285.6" y="212.941" fill="#000" font-size="13" textLength="20.217" font-family="Arial">sim</text><text x="461.225" y="212.941" fill="#000" font-size="13" textLength="21.69" font-family="Arial">não</text><rect x="139.749" y="237.696" width="140.059" height="47.598" fill="#E8F4FD" style="stroke:#3498DB;stroke-width:1.5;" rx="12.5" ry="12.5"/><text x="149.749" y="258.952" fill="#2C3E50" font-size="12" textLength="120.059" font-family="Arial">Processo transita para</text><text x="149.749" y="272.751" fill="#2C3E50" font-size="12" textLength="88.682" font-family="Arial">EM EXECUÇÃO</text><polygon points="145.079,305.294,274.478,305.294,286.478,319.093,274.478,332.892,145.079,332.892,133.079,319.093,145.079,305.294" fill="#F8F9FA" style="stroke:#2C3E50;stroke-width:1.5;stroke-linejoin:miter;stroke-miterlimit:10;"/><text x="145.079" y="316.55" fill="#2C3E50" font-size="12" textLength="129.398" font-family="Arial">Processo solicita evento</text><text x="145.079" y="330.349" fill="#2C3E50" font-size="12" textLength="56.684" font-family="Arial">(ex.: E/S)?</text><text x="112.862" y="316.338" fill="#000" font-size="13" textLength="20.217" font-family="Arial">sim</text><text x="286.478" y="316.338" fill="#000" font-size="13" textLength="125.036" font-family="Arial">não, aguarda sua vez</text><rect x="35.362" y="342.892" width="140.059" height="47.598" fill="#E8F4FD" style="stroke:#3498DB;stroke-width:1.5;" rx="12.5" ry="12.5"/><text x="45.362" y="364.147" fill="#2C3E50" font-size="12" textLength="120.059" font-family="Arial">Processo transita para</text><text x="45.362" y="377.946" fill="#2C3E50" font-size="12" textLength="76.02" font-family="Arial">BLOQUEADO</text><rect x="16" y="410.489" width="178.783" height="47.598" fill="#E8F4FD" style="stroke:#3498DB;stroke-width:1.5;" rx="12.5" ry="12.5"/><text x="26" y="431.745" fill="#2C3E50" font-size="12" textLength="158.783" font-family="Arial">Aguarda conclusão do evento</text><text x="26" y="445.544" fill="#2C3E50" font-size="12" textLength="70.693" font-family="Arial">(adormecido)</text><rect x="44.356" y="478.087" width="122.07" height="33.799" fill="#E8F4FD" style="stroke:#3498DB;stroke-width:1.5;" rx="12.5" ry="12.5"/><text x="54.356" y="499.343" fill="#2C3E50" font-size="12" textLength="102.07" font-family="Arial">Evento é concluído</text><rect x="36.027" y="531.886" width="138.729" height="47.598" fill="#E8F4FD" style="stroke:#3498DB;stroke-width:1.5;" rx="12.5" ry="12.5"/><text x="46.027" y="553.142" fill="#2C3E50" font-size="12" textLength="118.729" font-family="Arial">Processo retorna para</text><text x="46.027" y="566.94" fill="#2C3E50" font-size="12" textLength="51.334" font-family="Arial">PRONTO</text><rect x="214.783" y="342.892" width="198.764" height="47.598" fill="#E8F4FD" style="stroke:#3498DB;stroke-width:1.5;" rx="12.5" ry="12.5"/><text x="224.783" y="364.147" fill="#2C3E50" font-size="12" textLength="133.395" font-family="Arial">Processo permanece em</text><text x="224.783" y="377.946" fill="#2C3E50" font-size="12" textLength="178.764" font-family="Arial">PRONTO, aguardando prioridade</text><polygon points="209.778,585.483,221.778,597.483,209.778,609.483,197.778,597.483,209.778,585.483" fill="#F8F9FA" style="stroke:#2C3E50;stroke-width:1.5;stroke-linejoin:miter;stroke-miterlimit:10;"/><rect x="443.547" y="237.696" width="227.434" height="47.598" fill="#E8F4FD" style="stroke:#3498DB;stroke-width:1.5;" rx="12.5" ry="12.5"/><text x="453.547" y="258.952" fill="#2C3E50" font-size="12" textLength="132.75" font-family="Arial">Processo aguarda na fila</text><text x="453.547" y="272.751" fill="#2C3E50" font-size="12" textLength="207.434" font-family="Arial">de PRONTO (ordenada por prioridade)</text><polygon points="383.521,615.483,395.521,627.483,383.521,639.483,371.521,627.483,383.521,615.483" fill="#F8F9FA" style="stroke:#2C3E50;stroke-width:1.5;stroke-linejoin:miter;stroke-miterlimit:10;"/><polygon points="383.521,159.696,395.521,171.696,383.521,183.696,371.521,171.696,383.521,159.696" fill="#F8F9FA" style="stroke:#2C3E50;stroke-width:1.5;stroke-linejoin:miter;stroke-miterlimit:10;"/><polygon points="302.137,659.483,464.905,659.483,476.905,671.483,464.905,683.483,302.137,683.483,290.137,671.483,302.137,659.483" fill="#F8F9FA" style="stroke:#2C3E50;stroke-width:1.5;stroke-linejoin:miter;stroke-miterlimit:10;"/><text x="302.137" y="675.84" fill="#2C3E50" font-size="12" textLength="162.768" font-family="Arial">Processo ainda não terminou?</text><text x="476.905" y="668.729" fill="#000" font-size="13" textLength="20.217" font-family="Arial">sim</text><rect x="316.823" y="727.187" width="133.396" height="33.799" fill="#E8F4FD" style="stroke:#3498DB;stroke-width:1.5;" rx="12.5" ry="12.5"/><text x="326.823" y="748.443" fill="#2C3E50" font-size="12" textLength="113.396" font-family="Arial">Processo é destruído</text><ellipse cx="383.521" cy="791.986" rx="11" ry="11" fill="none" style="stroke:#222;stroke-width:1;"/><ellipse cx="383.521" cy="791.986" rx="6" ry="6" fill="#222" style="stroke:#222;stroke-width:1;"/><line x1="383.521" y1="72.099" x2="383.521" y2="92.099" style="stroke:#34495E;stroke-width:1.2;"/><polygon points="379.521,82.099,383.521,92.099,387.521,82.099,383.521,86.099" fill="#34495E" style="stroke:#34495E;stroke-width:1;stroke-linejoin:miter;stroke-miterlimit:10;"/><line x1="105.392" y1="390.489" x2="105.392" y2="410.489" style="stroke:#34495E;stroke-width:1.2;"/><polygon points="101.392,400.489,105.392,410.489,109.392,400.489,105.392,404.489" fill="#34495E" style="stroke:#34495E;stroke-width:1;stroke-linejoin:miter;stroke-miterlimit:10;"/><line x1="105.392" y1="458.087" x2="105.392" y2="478.087" style="stroke:#34495E;stroke-width:1.2;"/><polygon points="101.392,468.087,105.392,478.087,109.392,468.087,105.392,472.087" fill="#34495E" style="stroke:#34495E;stroke-width:1;stroke-linejoin:miter;stroke-miterlimit:10;"/><line x1="105.392" y1="511.886" x2="105.392" y2="531.886" style="stroke:#34495E;stroke-width:1.2;"/><polygon points="101.392,521.886,105.392,531.886,109.392,521.886,105.392,525.886" fill="#34495E" style="stroke:#34495E;stroke-width:1;stroke-linejoin:miter;stroke-miterlimit:10;"/><line x1="133.079" y1="319.093" x2="105.392" y2="319.093" style="stroke:#34495E;stroke-width:1.2;"/><line x1="105.392" y1="319.093" x2="105.392" y2="342.892" style="stroke:#34495E;stroke-width:1.2;"/><polygon points="101.392,332.892,105.392,342.892,109.392,332.892,105.392,336.892" fill="#34495E" style="stroke:#34495E;stroke-width:1;stroke-linejoin:miter;stroke-miterlimit:10;"/><line x1="286.478" y1="319.093" x2="314.165" y2="319.093" style="stroke:#34495E;stroke-width:1.2;"/><line x1="314.165" y1="319.093" x2="314.165" y2="342.892" style="stroke:#34495E;stroke-width:1.2;"/><polygon points="310.165,332.892,314.165,342.892,318.165,332.892,314.165,336.892" fill="#34495E" style="stroke:#34495E;stroke-width:1;stroke-linejoin:miter;stroke-miterlimit:10;"/><line x1="105.392" y1="579.483" x2="105.392" y2="597.483" style="stroke:#34495E;stroke-width:1.2;"/><line x1="105.392" y1="597.483" x2="197.778" y2="597.483" style="stroke:#34495E;stroke-width:1.2;"/><polygon points="187.778,593.483,197.778,597.483,187.778,601.483,191.778,597.483" fill="#34495E" style="stroke:#34495E;stroke-width:1;stroke-linejoin:miter;stroke-miterlimit:10;"/><line x1="314.165" y1="390.489" x2="314.165" y2="597.483" style="stroke:#34495E;stroke-width:1.2;"/><line x1="314.165" y1="597.483" x2="221.778" y2="597.483" style="stroke:#34495E;stroke-width:1.2;"/><polygon points="231.778,593.483,221.778,597.483,231.778,601.483,227.778,597.483" fill="#34495E" style="stroke:#34495E;stroke-width:1;stroke-linejoin:miter;stroke-miterlimit:10;"/><line x1="209.778" y1="285.294" x2="209.778" y2="305.294" style="stroke:#34495E;stroke-width:1.2;"/><polygon points="205.778,295.294,209.778,305.294,213.778,295.294,209.778,299.294" fill="#34495E" style="stroke:#34495E;stroke-width:1;stroke-linejoin:miter;stroke-miterlimit:10;"/><line x1="305.817" y1="215.696" x2="209.778" y2="215.696" style="stroke:#34495E;stroke-width:1.2;"/><line x1="209.778" y1="215.696" x2="209.778" y2="237.696" style="stroke:#34495E;stroke-width:1.2;"/><polygon points="205.778,227.696,209.778,237.696,213.778,227.696,209.778,231.696" fill="#34495E" style="stroke:#34495E;stroke-width:1;stroke-linejoin:miter;stroke-miterlimit:10;"/><line x1="461.225" y1="215.696" x2="557.264" y2="215.696" style="stroke:#34495E;stroke-width:1.2;"/><line x1="557.264" y1="215.696" x2="557.264" y2="237.696" style="stroke:#34495E;stroke-width:1.2;"/><polygon points="553.264,227.696,557.264,237.696,561.264,227.696,557.264,231.696" fill="#34495E" style="stroke:#34495E;stroke-width:1;stroke-linejoin:miter;stroke-miterlimit:10;"/><line x1="209.778" y1="609.483" x2="209.778" y2="627.483" style="stroke:#34495E;stroke-width:1.2;"/><line x1="209.778" y1="627.483" x2="371.521" y2="627.483" style="stroke:#34495E;stroke-width:1.2;"/><polygon points="361.521,623.483,371.521,627.483,361.521,631.483,365.521,627.483" fill="#34495E" style="stroke:#34495E;stroke-width:1;stroke-linejoin:miter;stroke-miterlimit:10;"/><line x1="557.264" y1="285.294" x2="557.264" y2="627.483" style="stroke:#34495E;stroke-width:1.2;"/><line x1="557.264" y1="627.483" x2="395.521" y2="627.483" style="stroke:#34495E;stroke-width:1.2;"/><polygon points="405.521,623.483,395.521,627.483,405.521,631.483,401.521,627.483" fill="#34495E" style="stroke:#34495E;stroke-width:1;stroke-linejoin:miter;stroke-miterlimit:10;"/><line x1="383.521" y1="183.696" x2="383.521" y2="203.696" style="stroke:#34495E;stroke-width:1.2;"/><polygon points="379.521,193.696,383.521,203.696,387.521,193.696,383.521,197.696" fill="#34495E" style="stroke:#34495E;stroke-width:1;stroke-linejoin:miter;stroke-miterlimit:10;"/><line x1="476.905" y1="671.483" x2="684.98" y2="671.483" style="stroke:#34495E;stroke-width:1.2;"/><polygon points="680.98,431.59,684.98,421.59,688.98,431.59,684.98,427.59" fill="#34495E" style="stroke:#34495E;stroke-width:1.2;stroke-linejoin:miter;stroke-miterlimit:10;"/><line x1="684.98" y1="171.696" x2="684.98" y2="671.483" style="stroke:#34495E;stroke-width:1.2;"/><line x1="684.98" y1="171.696" x2="395.521" y2="171.696" style="stroke:#34495E;stroke-width:1.2;"/><polygon points="405.521,167.696,395.521,171.696,405.521,175.696,401.521,171.696" fill="#34495E" style="stroke:#34495E;stroke-width:1;stroke-linejoin:miter;stroke-miterlimit:10;"/><line x1="383.521" y1="639.483" x2="383.521" y2="659.483" style="stroke:#34495E;stroke-width:1.2;"/><polygon points="379.521,649.483,383.521,659.483,387.521,649.483,383.521,653.483" fill="#34495E" style="stroke:#34495E;stroke-width:1;stroke-linejoin:miter;stroke-miterlimit:10;"/><line x1="383.521" y1="139.696" x2="383.521" y2="159.696" style="stroke:#34495E;stroke-width:1.2;"/><polygon points="379.521,149.696,383.521,159.696,387.521,149.696,383.521,153.696" fill="#34495E" style="stroke:#34495E;stroke-width:1;stroke-linejoin:miter;stroke-miterlimit:10;"/><line x1="383.521" y1="683.483" x2="383.521" y2="727.187" style="stroke:#34495E;stroke-width:1.2;"/><polygon points="379.521,717.187,383.521,727.187,387.521,717.187,383.521,721.187" fill="#34495E" style="stroke:#34495E;stroke-width:1;stroke-linejoin:miter;stroke-miterlimit:10;"/><text x="387.521" y="706.932" fill="#000" font-size="13" textLength="21.69" font-family="Arial">não</text><line x1="383.521" y1="760.986" x2="383.521" y2="780.986" style="stroke:#34495E;stroke-width:1.2;"/><polygon points="379.521,770.986,383.521,780.986,387.521,770.986,383.521,774.986" fill="#34495E" style="stroke:#34495E;stroke-width:1;stroke-linejoin:miter;stroke-miterlimit:10;"/><?plantuml-src VLBDRjD04BxxAKRYaaXGQ99AIIE1ycEVe2cqbJZqijsT9AFOkzRkEe5Md3Zm78WJI7qAlnYpYUEu3S8tpyptCz-iMv7EXHKPt0cvMbXJQ3KngR7m8jb-aQidt58eio6zWBb87JOw2kUYI7rYjByG6SB8aaZ_tR-YUuJJRjJe2kbfJVuhF4G0u-SsudxIIwQXOwn2MrMxlK5_EkPguAngdKatFdjJrNOwdHftlIIvqkWSd9wSSNLA8ZDQ7Sab_MIGZ1e3JTLQeMeUYtzxifYrPhFTgdRT6vp5_DzqqmaWJpv5c91C3ToLFnr9mwc1j-KV1-Wy9-z2eSWWjqOoqh2I5zP7vvTL0ShV83bvPG21j4DBojngBI0b7Wtmoq-pY-lPCBAOe_1iXERGgl2Ciw38vKQNZsjCtxN1Br53or7Mvb60WvAtGZjYph3ehOu_GFmvdjoKFyhlp1vc6yG6d4b9Xd5Se_RigOLVJiuXVdtLFbRvZyxu_UpZJJoQLXeyELeKmYe1qcYP5gxynR6PWqpOAKF9ERHhIBnjRiFQWif7POP7oXQziNellCyjp22_VMXfbde9ef9tXO0rtXylaAFDX4Q9WDcUfePfjffRCdmdeR1YruhcKLFbUVPxJJOtfvJDrNU5LdYiMd0pvriUgBVBxvXtbuVDalYz7IuaI0VAa9zdowHDmPSXLztbrTlG6ZvzQuhVfQtYSzxaqLy0?></g></svg>