<svg xmlns="http://www.w3.org/2000/svg" xmlns:xlink="http://www.w3.org/1999/xlink" version="1.1" data-diagram-type="CLASS" style="width:916px;height:635px;background:#FFFFFF;" width="916px" height="635px" viewBox="0 0 916 635" zoomAndPan="magnify" preserveAspectRatio="none" contentStyleType="text/css"><?plantuml 1.2026.7?><defs/><g font-family="sans-serif" lengthAdjust="spacing"><g class="title" data-source-line="21"><text x="222.312" y="23.132" fill="#000" font-size="14" textLength="465.315" font-weight="700" font-family="Arial">Job, Processo e Thread — e classificação dos Sistemas Operacionais</text></g><!--class SistemaOperacional--><g class="entity" data-qualified-name="SistemaOperacional" id="ent0001" data-source-line="23"><rect x="344" y="44.099" width="168.793" height="90.846" fill="#E8F4FD" style="stroke:#3498DB;stroke-width:1.5;" rx="2.5" ry="2.5"/><ellipse cx="364.208" cy="59.099" rx="10" ry="10" fill="#ADD1B2" style="stroke:#181818;stroke-width:1;"/><path d="M365.145,55.739 Q365.27,55.567 365.411,55.489 Q365.552,55.411 365.724,55.411 Q366.005,55.411 366.177,55.614 Q366.364,55.802 366.364,56.271 L366.364,57.38 Q366.364,57.849 366.177,58.052 Q366.005,58.239 365.724,58.239 Q365.458,58.239 365.302,58.099 Q365.145,57.958 365.067,57.552 Q365.02,57.286 364.895,57.146 Q364.63,56.849 364.161,56.677 Q363.692,56.505 363.224,56.505 Q362.645,56.505 362.145,56.771 Q361.661,57.021 361.286,57.599 Q360.911,58.161 360.911,58.942 L360.911,59.786 Q360.911,60.724 361.599,61.364 Q362.286,61.989 363.489,61.989 Q364.224,61.989 364.724,61.786 Q365.005,61.677 365.333,61.333 Q365.536,61.13 365.645,61.083 Q365.77,61.021 365.911,61.021 Q366.177,61.021 366.364,61.224 Q366.567,61.411 366.567,61.677 Q366.567,61.942 366.302,62.255 Q365.911,62.692 365.302,62.942 Q364.489,63.286 363.505,63.286 Q362.349,63.286 361.411,62.817 Q360.661,62.427 360.13,61.614 Q359.614,60.786 359.614,59.817 L359.614,58.927 Q359.614,57.911 360.083,57.036 Q360.567,56.161 361.395,55.692 Q362.239,55.208 363.177,55.208 Q363.739,55.208 364.224,55.349 Q364.724,55.474 365.145,55.739 Z " fill="#000"/><text x="378.587" y="63.818" fill="#2C3E50" font-size="13" textLength="124.998" font-weight="700" font-family="Arial">SistemaOperacional</text><line x1="345" y1="74.099" x2="511.793" y2="74.099" style="stroke:#3498DB;stroke-width:1.5;"/><g data-visibility-modifier="PUBLIC_FIELD"><ellipse cx="355" cy="87.073" rx="3" ry="3" fill="none" style="stroke:#038048;stroke-width:1;"/></g><text x="363" y="90.292" fill="#000" font-size="13" textLength="143.793" font-family="Arial">tipoProgramacao : String</text><g data-visibility-modifier="PUBLIC_FIELD"><ellipse cx="355" cy="102.022" rx="3" ry="3" fill="none" style="stroke:#038048;stroke-width:1;"/></g><text x="363" y="105.241" fill="#000" font-size="13" textLength="110.551" font-family="Arial">tipoUsuario : String</text><line x1="345" y1="111.996" x2="511.793" y2="111.996" style="stroke:#3498DB;stroke-width:1.5;"/><g data-visibility-modifier="PUBLIC_METHOD"><ellipse cx="355" cy="124.97" rx="3" ry="3" fill="#84BE84" style="stroke:#038048;stroke-width:1;"/></g><text x="363" y="128.19" fill="#000" font-size="13" textLength="65.724" font-family="Arial">classificar()</text></g><!--class Job--><g class="entity" data-qualified-name="Job" id="ent0002" data-source-line="29"><rect x="45.5" y="211.099" width="152.182" height="75.897" fill="#E8F4FD" style="stroke:#3498DB;stroke-width:1.5;" rx="2.5" ry="2.5"/><ellipse cx="106.035" cy="226.099" rx="10" ry="10" fill="#ADD1B2" style="stroke:#181818;stroke-width:1;"/><path d="M106.972,222.739 Q107.097,222.567 107.238,222.489 Q107.379,222.411 107.551,222.411 Q107.832,222.411 108.004,222.614 Q108.191,222.802 108.191,223.271 L108.191,224.38 Q108.191,224.849 108.004,225.052 Q107.832,225.239 107.551,225.239 Q107.285,225.239 107.129,225.099 Q106.972,224.958 106.894,224.552 Q106.847,224.286 106.722,224.146 Q106.457,223.849 105.988,223.677 Q105.519,223.505 105.051,223.505 Q104.472,223.505 103.972,223.771 Q103.488,224.021 103.113,224.599 Q102.738,225.161 102.738,225.942 L102.738,226.786 Q102.738,227.724 103.426,228.364 Q104.113,228.989 105.316,228.989 Q106.051,228.989 106.551,228.786 Q106.832,228.677 107.16,228.333 Q107.363,228.13 107.472,228.083 Q107.597,228.021 107.738,228.021 Q108.004,228.021 108.191,228.224 Q108.394,228.411 108.394,228.677 Q108.394,228.942 108.129,229.255 Q107.738,229.692 107.129,229.942 Q106.316,230.286 105.332,230.286 Q104.176,230.286 103.238,229.817 Q102.488,229.427 101.957,228.614 Q101.441,227.786 101.441,226.817 L101.441,225.927 Q101.441,224.911 101.91,224.036 Q102.394,223.161 103.222,222.692 Q104.066,222.208 105.004,222.208 Q105.566,222.208 106.051,222.349 Q106.551,222.474 106.972,222.739 Z " fill="#000"/><text x="125.035" y="230.818" fill="#2C3E50" font-size="13" textLength="23.112" font-weight="700" font-family="Arial">Job</text><line x1="46.5" y1="241.099" x2="196.682" y2="241.099" style="stroke:#3498DB;stroke-width:1.5;"/><g data-visibility-modifier="PUBLIC_FIELD"><ellipse cx="56.5" cy="254.073" rx="3" ry="3" fill="none" style="stroke:#038048;stroke-width:1;"/></g><text x="64.5" y="257.292" fill="#000" font-size="13" textLength="127.182" font-family="Arial">blocoTrabalho : String</text><line x1="46.5" y1="264.047" x2="196.682" y2="264.047" style="stroke:#3498DB;stroke-width:1.5;"/><g data-visibility-modifier="PUBLIC_METHOD"><ellipse cx="56.5" cy="277.022" rx="3" ry="3" fill="#84BE84" style="stroke:#038048;stroke-width:1;"/></g><text x="64.5" y="280.241" fill="#000" font-size="13" textLength="122.846" font-family="Arial">executarSequencial()</text></g><!--class Processo--><g class="entity" data-qualified-name="Processo" id="ent0003" data-source-line="34"><rect x="23.5" y="363.099" width="195.536" height="90.846" fill="#E8F4FD" style="stroke:#3498DB;stroke-width:1.5;" rx="2.5" ry="2.5"/><ellipse cx="88.002" cy="378.099" rx="10" ry="10" fill="#ADD1B2" style="stroke:#181818;stroke-width:1;"/><path d="M88.94,374.739 Q89.065,374.567 89.205,374.489 Q89.346,374.411 89.518,374.411 Q89.799,374.411 89.971,374.614 Q90.158,374.802 90.158,375.271 L90.158,376.38 Q90.158,376.849 89.971,377.052 Q89.799,377.239 89.518,377.239 Q89.252,377.239 89.096,377.099 Q88.94,376.958 88.862,376.552 Q88.815,376.286 88.69,376.146 Q88.424,375.849 87.955,375.677 Q87.487,375.505 87.018,375.505 Q86.44,375.505 85.94,375.771 Q85.455,376.021 85.08,376.599 Q84.705,377.161 84.705,377.942 L84.705,378.786 Q84.705,379.724 85.393,380.364 Q86.08,380.989 87.283,380.989 Q88.018,380.989 88.518,380.786 Q88.799,380.677 89.127,380.333 Q89.33,380.13 89.44,380.083 Q89.565,380.021 89.705,380.021 Q89.971,380.021 90.158,380.224 Q90.362,380.411 90.362,380.677 Q90.362,380.942 90.096,381.255 Q89.705,381.692 89.096,381.942 Q88.283,382.286 87.299,382.286 Q86.143,382.286 85.205,381.817 Q84.455,381.427 83.924,380.614 Q83.408,379.786 83.408,378.817 L83.408,377.927 Q83.408,376.911 83.877,376.036 Q84.362,375.161 85.19,374.692 Q86.033,374.208 86.971,374.208 Q87.533,374.208 88.018,374.349 Q88.518,374.474 88.94,374.739 Z " fill="#000"/><text x="107.002" y="382.818" fill="#2C3E50" font-size="13" textLength="58.532" font-weight="700" font-family="Arial">Processo</text><line x1="24.5" y1="393.099" x2="218.036" y2="393.099" style="stroke:#3498DB;stroke-width:1.5;"/><g data-visibility-modifier="PUBLIC_FIELD"><ellipse cx="34.5" cy="406.073" rx="3" ry="3" fill="none" style="stroke:#038048;stroke-width:1;"/></g><text x="42.5" y="409.292" fill="#000" font-size="13" textLength="34.69" font-family="Arial">int pid</text><g data-visibility-modifier="PUBLIC_FIELD"><ellipse cx="34.5" cy="421.022" rx="3" ry="3" fill="none" style="stroke:#038048;stroke-width:1;"/></g><text x="42.5" y="424.241" fill="#000" font-size="13" textLength="142.365" font-family="Arial">espacoEndereco : String</text><g data-visibility-modifier="PUBLIC_FIELD"><ellipse cx="34.5" cy="435.97" rx="3" ry="3" fill="none" style="stroke:#038048;stroke-width:1;"/></g><text x="42.5" y="439.19" fill="#000" font-size="13" textLength="170.536" font-family="Arial">isolamentoMemoria : boolean</text><line x1="24.5" y1="445.945" x2="218.036" y2="445.945" style="stroke:#3498DB;stroke-width:1.5;"/></g><!--class Thread--><g class="entity" data-qualified-name="Thread" id="ent0004" data-source-line="40"><rect x="7" y="530.099" width="229.49" height="90.846" fill="#E8F4FD" style="stroke:#3498DB;stroke-width:1.5;" rx="2.5" ry="2.5"/><ellipse cx="96.074" cy="545.099" rx="10" ry="10" fill="#ADD1B2" style="stroke:#181818;stroke-width:1;"/><path d="M97.011,541.739 Q97.136,541.567 97.277,541.489 Q97.418,541.411 97.59,541.411 Q97.871,541.411 98.043,541.614 Q98.23,541.802 98.23,542.271 L98.23,543.38 Q98.23,543.849 98.043,544.052 Q97.871,544.239 97.59,544.239 Q97.324,544.239 97.168,544.099 Q97.011,543.958 96.933,543.552 Q96.886,543.286 96.761,543.146 Q96.496,542.849 96.027,542.677 Q95.558,542.505 95.09,542.505 Q94.511,542.505 94.011,542.771 Q93.527,543.021 93.152,543.599 Q92.777,544.161 92.777,544.942 L92.777,545.786 Q92.777,546.724 93.465,547.364 Q94.152,547.989 95.355,547.989 Q96.09,547.989 96.59,547.786 Q96.871,547.677 97.199,547.333 Q97.402,547.13 97.511,547.083 Q97.636,547.021 97.777,547.021 Q98.043,547.021 98.23,547.224 Q98.433,547.411 98.433,547.677 Q98.433,547.942 98.168,548.255 Q97.777,548.692 97.168,548.942 Q96.355,549.286 95.371,549.286 Q94.215,549.286 93.277,548.817 Q92.527,548.427 91.996,547.614 Q91.48,546.786 91.48,545.817 L91.48,544.927 Q91.48,543.911 91.949,543.036 Q92.433,542.161 93.261,541.692 Q94.105,541.208 95.043,541.208 Q95.605,541.208 96.09,541.349 Q96.59,541.474 97.011,541.739 Z " fill="#000"/><text x="115.074" y="549.818" fill="#2C3E50" font-size="13" textLength="43.342" font-weight="700" font-family="Arial">Thread</text><line x1="8" y1="560.099" x2="235.49" y2="560.099" style="stroke:#3498DB;stroke-width:1.5;"/><g data-visibility-modifier="PUBLIC_FIELD"><ellipse cx="18" cy="573.073" rx="3" ry="3" fill="none" style="stroke:#038048;stroke-width:1;"/></g><text x="26" y="576.292" fill="#000" font-size="13" textLength="68.65" font-family="Arial">int idThread</text><g data-visibility-modifier="PUBLIC_FIELD"><ellipse cx="18" cy="588.022" rx="3" ry="3" fill="none" style="stroke:#038048;stroke-width:1;"/></g><text x="26" y="591.241" fill="#000" font-size="13" textLength="204.49" font-family="Arial">compartilhaEnderecoDe : Processo</text><line x1="8" y1="597.996" x2="235.49" y2="597.996" style="stroke:#3498DB;stroke-width:1.5;"/><g data-visibility-modifier="PUBLIC_METHOD"><ellipse cx="18" cy="610.97" rx="3" ry="3" fill="#84BE84" style="stroke:#038048;stroke-width:1;"/></g><text x="26" y="614.19" fill="#000" font-size="13" textLength="130.057" font-family="Arial">executarConcorrente()</text></g><!--class ClassificacaoProgramas--><g class="entity" data-qualified-name="ClassificacaoProgramas" id="ent0005" data-source-line="46"><rect x="233" y="211.099" width="181.023" height="75.897" fill="#E8F4FD" style="stroke:#3498DB;stroke-width:1.5;" rx="2.5" ry="2.5"/><ellipse cx="247" cy="226.099" rx="10" ry="10" fill="#EB937F" style="stroke:#181818;stroke-width:1;"/><path d="M246.063,226.88 L246.063,228.802 L249.391,228.802 L249.391,228.099 Q249.391,227.63 249.563,227.427 Q249.75,227.224 250.031,227.224 Q250.328,227.224 250.5,227.427 Q250.688,227.63 250.688,228.099 L250.688,230.099 L244.563,230.099 Q244.094,230.099 243.891,229.927 Q243.688,229.739 243.688,229.442 Q243.688,229.161 243.891,228.989 Q244.094,228.802 244.563,228.802 L244.766,228.802 L244.766,223.708 L244.563,223.708 Q244.094,223.708 243.891,223.536 Q243.688,223.349 243.688,223.052 Q243.688,222.755 243.891,222.583 Q244.094,222.396 244.563,222.396 L250.406,222.411 L250.406,224.38 Q250.406,224.849 250.219,225.052 Q250.047,225.255 249.75,225.255 Q249.453,225.255 249.266,225.052 Q249.094,224.849 249.094,224.38 L249.094,223.708 L246.063,223.708 L246.063,225.583 L247.203,225.583 Q247.203,225.083 247.297,224.927 Q247.5,224.614 247.859,224.614 Q248.141,224.614 248.328,224.817 Q248.516,225.021 248.516,225.489 L248.516,226.989 Q248.516,227.411 248.406,227.552 Q248.203,227.864 247.859,227.864 Q247.5,227.864 247.297,227.552 Q247.203,227.396 247.203,226.88 L246.063,226.88 Z " fill="#000"/><text x="260" y="230.818" fill="#2C3E50" font-size="13" textLength="151.023" font-weight="700" font-family="Arial">ClassificacaoProgramas</text><line x1="234" y1="241.099" x2="413.023" y2="241.099" style="stroke:#3498DB;stroke-width:1.5;"/><text x="239" y="257.292" fill="#000" font-size="13" textLength="140.854" font-family="Arial">MONOPROGRAMAVEL</text><text x="239" y="272.241" fill="#000" font-size="13" textLength="139.414" font-family="Arial">MULTIPROGRAMAVEL</text><line x1="234" y1="278.996" x2="413.023" y2="278.996" style="stroke:#3498DB;stroke-width:1.5;"/></g><!--class ClassificacaoUsuarios--><g class="entity" data-qualified-name="ClassificacaoUsuarios" id="ent0006" data-source-line="51"><rect x="449" y="211.099" width="168.734" height="75.897" fill="#E8F4FD" style="stroke:#3498DB;stroke-width:1.5;" rx="2.5" ry="2.5"/><ellipse cx="463" cy="226.099" rx="10" ry="10" fill="#EB937F" style="stroke:#181818;stroke-width:1;"/><path d="M462.063,226.88 L462.063,228.802 L465.391,228.802 L465.391,228.099 Q465.391,227.63 465.563,227.427 Q465.75,227.224 466.031,227.224 Q466.328,227.224 466.5,227.427 Q466.688,227.63 466.688,228.099 L466.688,230.099 L460.563,230.099 Q460.094,230.099 459.891,229.927 Q459.688,229.739 459.688,229.442 Q459.688,229.161 459.891,228.989 Q460.094,228.802 460.563,228.802 L460.766,228.802 L460.766,223.708 L460.563,223.708 Q460.094,223.708 459.891,223.536 Q459.688,223.349 459.688,223.052 Q459.688,222.755 459.891,222.583 Q460.094,222.396 460.563,222.396 L466.406,222.411 L466.406,224.38 Q466.406,224.849 466.219,225.052 Q466.047,225.255 465.75,225.255 Q465.453,225.255 465.266,225.052 Q465.094,224.849 465.094,224.38 L465.094,223.708 L462.063,223.708 L462.063,225.583 L463.203,225.583 Q463.203,225.083 463.297,224.927 Q463.5,224.614 463.859,224.614 Q464.141,224.614 464.328,224.817 Q464.516,225.021 464.516,225.489 L464.516,226.989 Q464.516,227.411 464.406,227.552 Q464.203,227.864 463.859,227.864 Q463.5,227.864 463.297,227.552 Q463.203,227.396 463.203,226.88 L462.063,226.88 Z " fill="#000"/><text x="476" y="230.818" fill="#2C3E50" font-size="13" textLength="138.734" font-weight="700" font-family="Arial">ClassificacaoUsuarios</text><line x1="450" y1="241.099" x2="616.734" y2="241.099" style="stroke:#3498DB;stroke-width:1.5;"/><text x="455" y="257.292" fill="#000" font-size="13" textLength="99.671" font-family="Arial">MONOUSUARIO</text><text x="455" y="272.241" fill="#000" font-size="13" textLength="98.23" font-family="Arial">MULTIUSUARIO</text><line x1="450" y1="278.996" x2="616.734" y2="278.996" style="stroke:#3498DB;stroke-width:1.5;"/></g><!--class ClassificacaoAcoplamento--><g class="entity" data-qualified-name="ClassificacaoAcoplamento" id="ent0007" data-source-line="56"><rect x="653" y="211.099" width="248.939" height="75.897" fill="#E8F4FD" style="stroke:#3498DB;stroke-width:1.5;" rx="2.5" ry="2.5"/><ellipse cx="691.072" cy="226.099" rx="10" ry="10" fill="#EB937F" style="stroke:#181818;stroke-width:1;"/><path d="M690.135,226.88 L690.135,228.802 L693.463,228.802 L693.463,228.099 Q693.463,227.63 693.635,227.427 Q693.822,227.224 694.103,227.224 Q694.4,227.224 694.572,227.427 Q694.76,227.63 694.76,228.099 L694.76,230.099 L688.635,230.099 Q688.166,230.099 687.963,229.927 Q687.76,229.739 687.76,229.442 Q687.76,229.161 687.963,228.989 Q688.166,228.802 688.635,228.802 L688.838,228.802 L688.838,223.708 L688.635,223.708 Q688.166,223.708 687.963,223.536 Q687.76,223.349 687.76,223.052 Q687.76,222.755 687.963,222.583 Q688.166,222.396 688.635,222.396 L694.478,222.411 L694.478,224.38 Q694.478,224.849 694.291,225.052 Q694.119,225.255 693.822,225.255 Q693.525,225.255 693.338,225.052 Q693.166,224.849 693.166,224.38 L693.166,223.708 L690.135,223.708 L690.135,225.583 L691.275,225.583 Q691.275,225.083 691.369,224.927 Q691.572,224.614 691.932,224.614 Q692.213,224.614 692.4,224.817 Q692.588,225.021 692.588,225.489 L692.588,226.989 Q692.588,227.411 692.478,227.552 Q692.275,227.864 691.932,227.864 Q691.572,227.864 691.369,227.552 Q691.275,227.396 691.275,226.88 L690.135,226.88 Z " fill="#000"/><text x="709.422" y="230.818" fill="#2C3E50" font-size="13" textLength="165.445" font-weight="700" font-family="Arial">ClassificacaoAcoplamento</text><line x1="654" y1="241.099" x2="900.939" y2="241.099" style="stroke:#3498DB;stroke-width:1.5;"/><text x="659" y="257.292" fill="#000" font-size="13" textLength="204.426" font-family="Arial">FORTEMENTE_ACOPLADO_SMP</text><text x="659" y="272.241" fill="#000" font-size="13" textLength="236.939" font-family="Arial">FRACAMENTE_ACOPLADO_CLUSTER</text><line x1="654" y1="278.996" x2="900.939" y2="278.996" style="stroke:#3498DB;stroke-width:1.5;"/></g><g class="entity" data-qualified-name="GMN14" id="ent0015" data-source-line="69"><path d="M271,548.099 L271,571.599 L236.18,575.599 L271,579.599 L271,602.945 A0,0 0 0 0 271,602.945 L476.304,602.945 A0,0 0 0 0 476.304,602.945 L476.304,558.099 L466.304,548.099 L271,548.099 A0,0 0 0 0 271,548.099" style="stroke:#181818;stroke-width:0.5;" fill="#FEFFDD"/><path d="M466.304,548.099 L466.304,558.099 L476.304,558.099 L466.304,548.099" style="stroke:#181818;stroke-width:0.5;" fill="#FEFFDD"/><text x="277" y="565.292" fill="#000" font-size="13" textLength="184.304" font-family="Arial">Unidade de execução dentro do</text><text x="277" y="580.241" fill="#000" font-size="13" textLength="173.405" font-family="Arial">processo; permite paralelismo</text><text x="277" y="595.19" fill="#000" font-size="13" textLength="148.853" font-family="Arial">intrínseco e concorrência.</text></g><!--link SistemaOperacional to Job--><g class="link" data-entity-1="ent0001" data-entity-2="ent0002" id="lnk8" data-source-line="61" data-link-type="dependency"><path d="M343.87,109.659 C301.02,121.609 249.36,139.639 207.5,165.099 C187.47,177.279 171.807,191.256 156.717,207.116" style="stroke:#34495E;stroke-width:1.2;" fill="none" id="SistemaOperacional-to-Job" codeLine="61"/><polygon points="153.27,210.739,162.372,206.976,156.717,207.116,156.576,201.461,153.27,210.739" fill="#34495E" style="stroke:#34495E;stroke-width:1.2;stroke-linejoin:miter;stroke-miterlimit:10;"/><text x="208.5" y="178.292" fill="#000" font-size="13" textLength="153.899" font-family="Arial">processa (modelo em lote)</text><text x="328.766" y="109.107" fill="#000" font-size="13" font-family="Arial">1</text><text x="153.838" y="200.386" fill="#000" font-size="13" font-family="Arial">*</text></g><!--link Job to Processo--><g class="link" data-entity-1="ent0002" data-entity-2="ent0003" id="lnk9" data-source-line="62" data-link-type="dependency"><path d="M121.5,287.429 C121.5,310.079 121.5,334.119 121.5,357.979" style="stroke:#34495E;stroke-width:1.2;stroke-dasharray:7,7;" fill="none" id="Job-to-Processo" codeLine="62"/><polygon points="121.5,362.979,125.5,353.979,121.5,357.979,117.5,353.979,121.5,362.979" fill="#34495E" style="stroke:#34495E;stroke-width:1.2;stroke-linejoin:miter;stroke-miterlimit:10;"/><text x="122.5" y="330.292" fill="#000" font-size="13" textLength="63.597" font-family="Arial">evolui para</text></g><!--reverse link Processo to Thread--><g class="link" data-entity-1="ent0003" data-entity-2="ent0004" id="lnk10" data-source-line="63" data-link-type="composition"><path d="M121.5,466.249 C121.5,489.729 121.5,506.429 121.5,529.909" style="stroke:#34495E;stroke-width:1.2;" fill="none" id="Processo-backto-Thread" codeLine="63"/><polygon points="121.5,454.249,117.5,460.249,121.5,466.249,125.5,460.249,121.5,454.249" fill="#34495E" style="stroke:#34495E;stroke-width:1.2;stroke-linejoin:miter;stroke-miterlimit:10;"/><text x="122.5" y="497.292" fill="#000" font-size="13" textLength="42.631" font-family="Arial">contém</text><text x="114.037" y="474.256" fill="#000" font-size="13" font-family="Arial">1</text><text x="116.05" y="519.467" fill="#000" font-size="13" font-family="Arial">*</text></g><!--link SistemaOperacional to ClassificacaoProgramas--><g class="link" data-entity-1="ent0001" data-entity-2="ent0005" id="lnk11" data-source-line="64" data-link-type="dependency"><path d="M398.69,135.309 C382.75,159.229 366.114,184.178 351.014,206.828" style="stroke:#34495E;stroke-width:1.2;" fill="none" id="SistemaOperacional-to-ClassificacaoProgramas" codeLine="64"/><polygon points="348.24,210.989,356.561,205.719,351.014,206.828,349.904,201.281,348.24,210.989" fill="#34495E" style="stroke:#34495E;stroke-width:1.2;stroke-linejoin:miter;stroke-miterlimit:10;"/><text x="377.5" y="178.292" fill="#000" font-size="13" textLength="92.466" font-family="Arial">classifica-se em</text></g><!--link SistemaOperacional to ClassificacaoUsuarios--><g class="link" data-entity-1="ent0001" data-entity-2="ent0006" id="lnk12" data-source-line="65" data-link-type="dependency"><path d="M458.68,135.479 C465.23,145.239 472.1,155.509 478.5,165.099 C488.47,180.059 496.658,192.391 506.148,206.711" style="stroke:#34495E;stroke-width:1.2;" fill="none" id="SistemaOperacional-to-ClassificacaoUsuarios" codeLine="65"/><polygon points="508.91,210.879,507.273,201.167,506.148,206.711,500.604,205.586,508.91,210.879" fill="#34495E" style="stroke:#34495E;stroke-width:1.2;stroke-linejoin:miter;stroke-miterlimit:10;"/><text x="490.5" y="178.292" fill="#000" font-size="13" textLength="92.466" font-family="Arial">classifica-se em</text></g><!--link SistemaOperacional to ClassificacaoAcoplamento--><g class="link" data-entity-1="ent0001" data-entity-2="ent0007" id="lnk13" data-source-line="66" data-link-type="dependency"><path d="M513.43,128.929 C568.81,153.919 636.163,184.311 690.943,209.041" style="stroke:#34495E;stroke-width:1.2;" fill="none" id="SistemaOperacional-to-ClassificacaoAcoplamento" codeLine="66"/><polygon points="695.5,211.099,688.943,203.75,690.943,209.041,685.651,211.041,695.5,211.099" fill="#34495E" style="stroke:#34495E;stroke-width:1.2;stroke-linejoin:miter;stroke-miterlimit:10;"/><text x="625.5" y="178.292" fill="#000" font-size="13" textLength="82.393" font-family="Arial">escalabilidade</text></g><?plantuml-src dLJRRXCn47tVhnY5bxQGYDwaDaYLjia65INTA9lmMZbU9x7gzGJReGM4n4Vm1pmWaFYA_0bVmdXtizb6GKBaRUTupZa-Cuwzbth93CjWolZztE1AfnrKQE1PB_y5jZfX5op51wddC6FAYXgIYXbRATT3xMvP9Y0qagdzU28_2ZW-3MeeLynQ-1G0NEzwY2vwPxskHz2amfJLqxFBY-urLJrXMJlfd4RdByjQuZue0LDKwQPGgcw8nWl9xxKWsUFMELL3O_2XOZ-xF8-2ptMBpEEvnQU70EfC9xx9IKVQRt3w0eO6EI48WeuPmLBu_UKhVUGNbZF9sVhx-Xj2YXOIQPt8c8LuAGpZ4ZMJDWYAR4fm2wdSotDmSecaCYUFZ3E4DYJEq8GgS69NpCWTOAjl3WwzvqA5F9UqKuKSnuPDcLhiz8f7mLUEcKIyMmdDQSvrYkh61O_K3fOoBHhjad6CDAKl-0wfjAXeRxJ3WSYGbeVWAQ8IJ6-vomYtp38jIiMTCADHEQaMRAFH5KIpSVJ4V0SrHsD8K1JkXLvbqAbYeIWtgHQBEOXlu-4eVZqA1-7RgEyha_xufbxQorB6loMP99DmT1Dl23QVUvj3Ziiobho_5u_6qI2w7KTtOISUziDkV9SCXXuPXPrm1-dq9yau6ddgFUlJE6v0ita5ZQD6FlSsB8kW61nac0f5Ivk1GYSE0u-tMbVRuRP1l4Urak0VHr2LFUTHivbpbiDgqroqM__8zddm-d_9l5tRqQOLvEMV2Agu_xE_dZXTqdAcs5GgcR9K186cDC38-S81pg3QlOdESVgJA_QhVDD4OlpJfXDbjFWAI3oJnEA3Kq99ctcSbjciVsdhtuNmYVdbNF_qhwj5Uv62Lmx-0000?></g></svg>